<?xml version="1.0" standalone="no"?>
<!DOCTYPE svg PUBLIC "-//W3C//DTD SVG 20010904//EN"
 "http://www.w3.org/TR/2001/REC-SVG-20010904/DTD/svg10.dtd">
<svg version="1.0" xmlns="http://www.w3.org/2000/svg"
 width="1179.000000pt" height="1035.000000pt" viewBox="0 0 1179.000000 1035.000000"
 preserveAspectRatio="xMidYMid meet">

<g transform="translate(0.000000,1035.000000) scale(0.100000,-0.100000)"
fill="#000000" stroke="none">
<path d="M3546 9905 c-4 -11 -20 -15 -56 -15 -46 0 -50 -2 -50 -24 0 -21 -5
-25 -37 -28 -38 -3 -38 -4 -41 -50 -2 -25 -10 -52 -18 -58 -9 -8 -14 -32 -14
-71 0 -33 -4 -59 -10 -59 -5 0 -10 -15 -10 -33 0 -42 -23 -64 -70 -69 -32 -3
-35 -6 -38 -40 l-3 -37 -62 -3 c-56 -3 -62 -5 -67 -28 -5 -20 -13 -26 -43 -28
-35 -3 -37 -5 -37 -38 0 -25 -4 -34 -17 -35 -10 -1 -22 -2 -28 -4 -5 -1 -16
-3 -22 -3 -8 -1 -13 -16 -13 -36 0 -34 -1 -35 -47 -38 -46 -3 -48 -4 -53 -38
-5 -34 -7 -35 -55 -40 -49 -5 -50 -5 -53 -42 -2 -29 -8 -37 -25 -40 -18 -2
-23 -11 -27 -53 -5 -49 -5 -50 -42 -53 -35 -3 -37 -5 -40 -40 -3 -35 -5 -37
-40 -40 -36 -3 -38 -5 -38 -38 0 -20 -5 -35 -12 -35 -7 -1 -20 -3 -28 -4 -8
-1 -21 -3 -27 -4 -9 0 -13 -18 -13 -50 0 -44 -3 -50 -22 -53 -20 -3 -24 -11
-28 -53 -5 -50 -5 -50 -42 -53 l-38 -3 0 -49 c0 -43 -3 -49 -22 -52 -20 -3
-24 -11 -28 -53 -5 -50 -5 -50 -42 -53 l-38 -3 0 -50 c0 -45 -2 -49 -24 -49
-23 0 -25 -4 -28 -52 -3 -46 -6 -53 -28 -58 -21 -5 -25 -12 -28 -45 -1 -22 -7
-49 -12 -60 -5 -11 -11 -38 -12 -60 -3 -33 -7 -40 -28 -45 -22 -5 -25 -12 -28
-52 -3 -39 -7 -47 -25 -50 -18 -2 -23 -10 -25 -48 -2 -25 -7 -49 -13 -54 -5
-6 -9 -29 -9 -52 0 -25 -6 -47 -15 -54 -10 -8 -15 -31 -15 -70 0 -39 -5 -62
-15 -70 -9 -8 -15 -30 -15 -56 0 -24 -4 -44 -10 -44 -6 0 -10 -26 -10 -59 0
-40 -5 -63 -15 -71 -10 -8 -15 -31 -15 -67 0 -35 -5 -60 -15 -69 -11 -12 -15
-39 -15 -109 0 -52 -4 -97 -10 -100 -13 -8 -13 -185 0 -185 6 0 10 -83 10
-229 0 -191 2 -231 15 -241 9 -7 15 -29 15 -55 0 -26 6 -48 15 -55 10 -8 15
-31 15 -71 0 -52 2 -58 23 -61 19 -3 22 -10 25 -50 2 -25 10 -52 18 -58 8 -8
14 -30 14 -56 0 -37 3 -43 23 -46 20 -3 22 -9 25 -65 2 -35 7 -63 12 -63 5 0
10 -23 12 -52 3 -46 6 -53 28 -58 22 -5 25 -12 28 -52 3 -46 4 -47 40 -50 35
-3 37 -5 40 -40 2 -29 8 -37 25 -40 18 -2 23 -11 27 -53 5 -48 6 -50 40 -55
34 -5 35 -7 38 -52 3 -39 6 -47 25 -50 18 -3 23 -11 27 -53 5 -49 5 -50 42
-53 35 -3 37 -5 40 -40 3 -35 5 -37 40 -40 35 -3 37 -5 40 -40 3 -36 4 -37 50
-40 46 -3 47 -4 50 -40 3 -35 5 -37 40 -40 33 -3 37 -6 40 -35 2 -23 10 -35
31 -45 23 -11 27 -19 27 -57 l0 -44 48 -3 c40 -3 47 -6 50 -25 3 -17 11 -23
40 -25 37 -3 37 -4 42 -53 l5 -50 48 -3 c26 -2 48 -7 48 -13 1 -5 2 -15 3 -21
0 -8 21 -15 51 -18 42 -4 50 -8 53 -27 3 -21 13 -28 36 -24 28 5 46 -12 46
-45 0 -33 1 -34 43 -34 50 0 67 -13 67 -52 0 -27 2 -28 49 -28 33 0 51 -5 54
-14 4 -10 24 -16 54 -18 41 -3 48 -6 51 -25 3 -22 8 -23 130 -25 l127 -3 5
-50 5 -50 103 -3 c56 -1 102 -7 102 -12 0 -5 28 -10 62 -12 57 -3 63 -5 68
-28 5 -23 11 -25 65 -28 33 -2 64 -7 69 -13 6 -5 76 -9 157 -9 117 0 149 -3
159 -15 9 -11 43 -15 148 -17 129 -3 137 -4 137 -23 0 -17 -8 -21 -50 -25 -42
-4 -50 -9 -53 -27 -3 -18 -11 -22 -50 -25 -40 -3 -47 -6 -52 -28 -5 -20 -13
-26 -43 -28 -35 -3 -37 -5 -37 -37 0 -36 -12 -45 -64 -45 -18 0 -37 -5 -43
-11 -5 -5 -37 -9 -69 -7 l-59 3 -3 37 c-3 35 -5 37 -40 40 -34 3 -37 6 -42 38
-5 34 -7 35 -52 38 -27 2 -48 7 -48 13 0 5 -29 9 -64 9 -48 0 -65 4 -70 15 -5
13 -22 15 -93 13 -83 -3 -88 -4 -91 -25 -3 -20 -9 -23 -46 -23 -26 0 -48 -6
-56 -14 -6 -8 -33 -16 -58 -18 -46 -3 -47 -3 -50 -40 l-3 -38 -64 0 c-45 0
-64 -4 -68 -14 -4 -10 -24 -16 -54 -18 -41 -3 -48 -6 -51 -25 -3 -19 -10 -23
-37 -23 -19 0 -37 -4 -40 -10 -3 -5 -30 -10 -60 -10 -33 0 -59 -5 -68 -14 -8
-8 -34 -16 -58 -18 -37 -2 -45 -7 -47 -25 -3 -19 -10 -22 -55 -25 l-52 -3 -5
-50 c-4 -42 -8 -50 -27 -53 -22 -3 -23 -8 -23 -88 0 -63 4 -89 15 -100 10 -10
15 -35 15 -69 0 -48 2 -54 23 -57 19 -3 22 -10 25 -55 3 -49 5 -53 28 -53 22
0 24 -4 24 -49 0 -52 8 -61 56 -61 22 0 24 -4 24 -49 l0 -50 38 -3 c34 -3 37
-6 42 -38 4 -27 10 -36 27 -38 20 -3 22 -10 25 -65 l3 -62 35 -5 c31 -4 36 -9
40 -40 4 -31 9 -36 40 -40 31 -4 36 -9 40 -40 5 -32 8 -35 42 -38 35 -3 37 -5
40 -40 3 -34 6 -37 38 -42 34 -5 35 -7 38 -52 3 -45 5 -48 30 -48 34 0 49 -10
53 -35 3 -15 13 -21 42 -23 l37 -3 0 -49 c0 -43 3 -49 23 -52 18 -2 23 -10 25
-40 l3 -38 50 0 49 0 0 -36 c0 -51 15 -74 50 -74 26 0 30 -4 30 -28 0 -35 16
-52 51 -52 24 0 28 -5 31 -32 3 -29 7 -33 33 -36 68 -6 75 -10 75 -47 0 -32 2
-34 38 -37 35 -3 37 -5 40 -41 l3 -37 49 0 49 0 3 -37 c2 -31 7 -39 25 -41 22
-3 41 -41 30 -59 -3 -4 -1 -18 4 -30 7 -19 16 -23 53 -23 45 0 45 0 48 -37 3
-38 3 -38 53 -43 42 -4 50 -8 53 -27 3 -20 9 -23 48 -23 25 0 51 -6 59 -13 21
-21 253 -23 280 -3 28 22 161 22 169 1 7 -20 147 -19 173 1 10 7 43 14 76 14
42 0 59 4 63 15 5 12 28 15 120 15 69 0 114 4 114 10 0 6 26 10 59 10 40 0 63
5 71 15 7 9 29 15 55 15 26 0 48 6 55 15 8 9 29 15 55 15 37 0 44 3 49 25 6
23 11 25 57 25 l50 0 -3 103 -3 102 -35 5 c-32 5 -35 8 -38 42 -3 35 -5 37
-40 40 -36 3 -37 4 -40 50 -3 39 -6 47 -25 50 -18 2 -23 11 -25 41 -3 37 -4
37 -46 37 -51 0 -76 21 -56 45 7 8 21 15 31 15 11 0 19 5 19 10 0 6 20 10 44
10 26 0 48 6 56 15 7 9 29 15 55 15 26 0 47 6 55 15 11 13 36 16 134 14 81 -1
121 2 124 10 2 7 42 11 117 11 88 0 115 3 125 15 18 22 192 22 210 0 7 -8 21
-15 31 -15 13 0 19 -9 21 -38 3 -35 5 -37 41 -40 l37 -3 0 -49 0 -49 38 -3
c35 -3 37 -5 40 -40 3 -35 5 -37 40 -40 37 -3 37 -4 42 -53 5 -48 6 -50 40
-55 31 -4 36 -9 40 -40 4 -31 9 -36 40 -40 31 -4 36 -9 40 -40 4 -31 9 -35 38
-38 33 -3 34 -5 36 -62 1 -33 3 -35 38 -38 29 -2 37 -8 40 -25 2 -17 12 -23
38 -27 34 -5 35 -7 40 -55 5 -49 5 -50 42 -53 35 -3 37 -5 40 -40 3 -35 5 -37
40 -40 35 -3 37 -5 40 -40 l3 -37 52 -3 52 -3 3 -37 c3 -34 6 -37 38 -42 31
-4 35 -9 38 -37 3 -29 7 -33 32 -33 35 0 43 -11 44 -64 1 -40 2 -41 38 -44 35
-3 37 -5 40 -40 3 -35 5 -37 40 -40 35 -3 37 -5 40 -40 3 -37 4 -37 53 -42 48
-5 50 -6 55 -40 4 -27 10 -36 28 -38 19 -3 22 -9 22 -52 l0 -49 38 -3 c35 -3
37 -5 40 -40 3 -35 5 -37 40 -40 35 -3 37 -5 40 -40 3 -35 5 -37 40 -40 37 -3
37 -4 42 -53 4 -42 9 -51 27 -53 17 -3 23 -11 25 -40 l3 -37 53 -3 52 -3 0
-50 c0 -49 0 -49 33 -49 21 0 41 -8 52 -20 16 -18 31 -20 137 -20 l119 0 -3
33 c-2 24 -8 33 -25 35 -17 3 -23 10 -23 28 0 21 5 24 35 24 26 0 35 4 37 18
0 9 2 22 3 27 2 6 3 16 4 23 1 8 18 12 50 12 l50 0 3 38 c2 29 8 38 25 40 14
2 23 11 25 25 2 17 11 23 41 25 l37 3 0 50 c0 47 1 49 28 49 41 0 50 11 54 60
3 44 4 45 40 48 l37 3 3 52 3 52 38 3 c35 3 37 5 37 38 0 27 4 34 20 35 11 1
25 3 30 4 6 1 15 3 20 4 6 0 10 24 10 51 0 46 2 50 24 50 23 0 25 4 28 53 3
45 6 52 26 55 18 3 22 10 22 38 0 26 4 34 18 34 30 0 42 21 42 75 0 28 4 55 9
61 6 5 11 29 13 54 2 37 7 46 24 48 25 3 34 27 34 88 0 22 4 44 9 50 6 5 11
29 13 54 3 38 7 46 26 48 21 3 22 7 22 111 0 84 3 111 15 121 10 8 15 30 15
61 0 46 2 49 25 49 23 0 25 3 25 50 0 36 4 52 15 56 11 5 15 22 15 64 0 39 5
62 15 70 9 7 15 29 15 54 0 23 4 46 10 52 5 5 11 59 12 119 3 106 4 109 27
115 l24 5 -2 150 c-1 118 2 156 14 179 8 15 15 53 15 82 0 39 4 56 15 60 12 5
15 25 15 89 0 61 -4 86 -15 95 -12 10 -15 36 -15 115 0 73 -4 111 -15 131 -13
23 -15 59 -13 178 2 113 0 150 -9 153 -10 4 -13 36 -13 119 0 93 -3 116 -15
120 -9 4 -15 19 -15 40 l0 34 55 0 c52 0 55 -1 55 -24 0 -21 5 -25 38 -28 34
-3 37 -6 42 -38 5 -34 7 -35 52 -38 46 -3 47 -4 50 -40 3 -35 5 -37 41 -40 35
-3 37 -5 37 -37 0 -32 18 -49 46 -44 26 4 34 -4 34 -35 0 -33 2 -35 38 -38
l37 -3 3 -52 3 -52 37 -3 c35 -3 37 -5 40 -43 1 -22 7 -49 12 -60 5 -11 10
-31 12 -45 2 -16 11 -26 28 -30 22 -5 25 -12 28 -57 3 -45 6 -52 25 -55 22 -3
22 -7 25 -168 2 -132 5 -166 17 -173 19 -10 19 -31 0 -47 -12 -10 -15 -44 -15
-191 0 -177 0 -178 -22 -181 -22 -3 -23 -8 -26 -100 -2 -69 -7 -99 -17 -108
-10 -8 -15 -32 -15 -70 0 -39 -5 -62 -15 -70 -8 -7 -15 -25 -15 -41 0 -15 -4
-31 -10 -34 -5 -3 -10 -32 -10 -64 0 -40 -5 -63 -15 -71 -9 -8 -15 -30 -15
-56 0 -24 -4 -44 -10 -44 -5 0 -10 -28 -12 -62 -3 -54 -6 -63 -23 -67 -27 -5
-35 -19 -35 -68 0 -24 -4 -43 -10 -43 -5 0 -10 -20 -10 -44 0 -26 -6 -48 -15
-56 -9 -7 -15 -29 -15 -55 0 -26 -6 -48 -15 -55 -10 -8 -15 -31 -15 -71 0 -52
-2 -58 -22 -61 -20 -3 -24 -11 -28 -53 -4 -42 -8 -50 -27 -53 -21 -3 -23 -9
-23 -61 0 -40 -5 -63 -15 -71 -9 -7 -15 -29 -15 -54 0 -23 -4 -46 -9 -51 -6
-6 -11 -30 -13 -55 -3 -38 -7 -45 -28 -50 -20 -5 -26 -13 -28 -43 -2 -20 -7
-37 -12 -37 -5 0 -10 -28 -12 -62 -3 -57 -5 -63 -28 -68 -22 -5 -26 -13 -30
-55 -4 -42 -8 -50 -27 -53 -21 -3 -23 -9 -23 -61 0 -31 -5 -62 -12 -69 -7 -7
-12 -31 -13 -54 0 -36 -3 -43 -25 -48 -22 -5 -26 -13 -30 -55 -4 -42 -8 -50
-27 -53 -20 -3 -23 -9 -23 -48 l0 -44 93 1 c136 1 141 4 145 67 3 48 5 52 28
52 23 0 24 3 24 65 0 63 1 65 25 65 23 0 25 3 25 50 0 36 4 52 15 56 11 4 15
21 15 55 0 46 2 49 25 49 23 0 25 3 25 50 0 36 4 52 15 56 10 4 15 21 15 54
l0 49 38 3 37 3 3 102 c3 96 4 102 25 105 19 3 22 10 25 63 2 33 9 67 17 75 8
8 15 40 17 70 3 48 6 55 26 58 19 3 22 9 22 53 0 27 5 49 10 49 6 0 10 20 10
44 0 26 6 51 15 60 8 8 15 32 15 54 0 23 6 45 15 52 10 8 15 31 15 71 0 52 2
58 23 61 18 2 23 10 25 48 2 25 10 52 17 60 7 8 15 35 17 60 2 37 6 45 23 45
19 0 20 8 23 114 2 86 6 117 18 129 11 10 15 28 12 53 -2 25 1 40 9 43 8 4 13
24 13 55 0 34 4 51 15 55 11 4 15 21 15 65 0 33 5 63 10 66 6 4 10 70 10 165
0 128 3 161 15 174 12 12 15 44 15 161 0 117 -3 149 -15 161 -11 12 -15 41
-15 124 0 105 -1 109 -22 112 -20 3 -23 10 -26 50 -3 39 -7 47 -28 52 -21 6
-24 12 -24 50 0 26 -6 48 -14 56 -8 6 -16 33 -18 58 -3 46 -4 47 -40 50 -35 3
-37 5 -40 40 -3 32 -6 37 -27 34 -36 -4 -51 15 -51 64 0 44 0 44 -35 44 -35 0
-35 0 -35 44 0 49 -16 69 -51 64 -17 -2 -24 3 -29 22 -5 20 -13 26 -42 28 -35
3 -37 5 -40 40 -3 37 -4 37 -53 42 -48 5 -50 6 -55 40 -5 34 -7 35 -52 38 -39
3 -47 6 -50 25 -2 17 -11 23 -40 25 -35 3 -37 5 -40 40 -3 35 -5 37 -40 40
l-38 3 0 50 0 49 -50 0 c-36 0 -52 4 -56 15 -4 8 -17 15 -30 15 -22 0 -24 4
-24 46 0 27 -6 51 -15 60 -9 9 -15 34 -15 60 0 24 -4 44 -10 44 -6 0 -10 28
-10 65 0 63 -1 65 -25 65 -17 0 -25 6 -26 18 -2 54 -8 87 -18 90 -6 2 -11 26
-11 53 0 45 -2 49 -24 49 -23 0 -25 4 -28 52 -3 46 -6 53 -28 58 -23 5 -25 11
-28 67 -3 55 -5 62 -25 65 -19 3 -22 10 -25 50 -2 25 -10 52 -18 58 -8 8 -14
30 -14 56 0 44 0 44 -35 44 -35 0 -35 1 -35 43 0 46 -13 67 -42 67 -14 0 -18
8 -18 34 0 28 -4 35 -22 38 -18 2 -24 10 -26 40 -3 35 -5 37 -40 40 -37 3 -37
4 -42 53 -5 48 -6 50 -40 55 -31 4 -36 9 -40 40 -4 27 -10 36 -27 38 -20 3
-22 10 -25 65 l-3 62 -35 5 c-31 4 -36 9 -40 40 -4 31 -9 36 -40 40 -34 5 -35
7 -38 52 -3 46 -4 47 -40 50 -35 3 -37 5 -40 40 -3 35 -5 37 -40 40 -35 3 -37
5 -40 40 -3 35 -5 37 -40 40 l-37 3 -3 52 -3 52 -37 3 c-20 2 -38 9 -38 16 -1
6 -2 16 -3 21 0 6 -22 11 -48 13 -46 3 -48 4 -53 38 -4 31 -9 36 -40 40 -31 4
-36 9 -40 40 l-5 35 -62 3 -62 3 -3 37 c-3 35 -5 37 -40 40 -33 3 -38 7 -38
28 0 22 -4 24 -50 24 -27 0 -51 5 -51 10 -1 6 -2 16 -3 23 0 7 -19 13 -46 15
-25 2 -52 10 -60 17 -8 7 -35 15 -60 17 -38 2 -46 7 -48 26 -3 20 -9 22 -63
22 -44 0 -61 4 -65 15 -5 12 -27 15 -109 15 -63 0 -105 4 -107 10 -2 7 -52 12
-128 13 l-125 2 -3 74 c-2 53 -7 78 -18 86 -14 10 -14 12 0 24 22 18 23 193 2
211 -8 6 -16 33 -18 58 -2 28 -8 47 -15 48 -7 1 -17 2 -23 3 -5 0 -10 28 -10
61 0 45 -4 62 -15 66 -10 4 -15 21 -15 54 0 43 -3 49 -22 52 -20 3 -24 11 -28
53 -5 50 -5 50 -42 53 l-38 3 0 49 c0 43 -3 49 -22 52 -18 2 -24 11 -28 38 -4
31 -9 36 -40 40 -34 5 -35 7 -38 52 -2 25 -10 52 -18 58 -11 10 -14 49 -14
201 0 187 0 188 -22 191 -20 3 -24 11 -28 53 l-5 50 -47 3 c-43 3 -49 6 -54
30 -11 51 -12 52 -59 52 -25 0 -45 5 -45 10 0 6 -22 10 -50 10 -32 0 -52 5
-57 14 -4 8 -24 16 -43 18 -30 3 -35 6 -33 28 4 43 -6 70 -26 70 -23 0 -31 19
-31 70 0 38 -1 39 -37 42 -38 3 -38 3 -43 53 -4 42 -8 50 -27 53 -19 3 -23 10
-23 37 0 33 -1 34 -47 37 -46 3 -48 4 -53 38 -4 31 -9 36 -40 40 -31 4 -36 9
-40 40 -5 34 -7 35 -55 40 -50 5 -50 5 -53 43 l-3 37 -50 0 c-32 0 -49 4 -50
13 -1 6 -2 23 -2 37 -2 21 -8 25 -39 28 -35 3 -37 5 -40 40 -3 37 -4 37 -53
42 -42 4 -51 9 -53 27 -3 17 -11 23 -40 25 -29 2 -37 8 -42 28 -4 16 -13 25
-25 26 -11 1 -39 2 -62 3 -35 1 -42 5 -45 24 -2 18 -10 23 -40 25 -21 2 -38 7
-38 12 0 4 -34 10 -76 12 -41 2 -78 9 -82 15 -4 6 -23 13 -42 15 -19 2 -36 9
-36 16 -1 6 -2 17 -3 22 0 6 -25 10 -55 10 -35 0 -60 5 -70 15 -9 9 -33 15
-61 15 -31 0 -47 5 -51 15 -5 12 -28 15 -120 15 -69 0 -114 4 -114 10 0 6 -20
10 -44 10 -26 0 -51 6 -60 15 -12 12 -44 15 -159 15 -116 0 -147 -3 -157 -15
-10 -12 -37 -15 -121 -15 -61 0 -110 -4 -114 -10 -3 -6 -52 -10 -111 -10
l-104 0 0 50 0 50 -59 0 c-40 0 -63 5 -71 15 -9 11 -34 15 -95 15 -64 0 -84
-3 -89 -15z m124 -201 c6 -14 19 -28 30 -31 14 -4 20 -14 20 -34 0 -35 11 -42
74 -43 45 -1 52 -4 64 -29 13 -28 14 -28 100 -25 82 3 86 4 92 27 4 19 13 26
40 29 19 2 37 8 38 13 2 5 59 9 127 9 97 0 125 3 135 15 9 11 32 15 80 15 51
0 69 -4 74 -15 4 -11 21 -15 64 -15 32 0 63 -5 69 -11 7 -7 47 -11 107 -10 81
2 96 0 96 -14 0 -12 13 -15 64 -15 44 0 67 -5 76 -15 7 -8 25 -15 41 -15 21 0
28 -5 31 -22 3 -21 9 -23 77 -26 47 -2 78 -8 88 -17 8 -8 27 -15 43 -15 22 0
29 -5 32 -22 3 -21 9 -23 65 -26 55 -3 62 -5 65 -25 2 -17 11 -23 36 -25 24
-2 35 -10 42 -27 8 -20 17 -24 57 -27 41 -3 48 -6 53 -28 5 -19 14 -26 40 -30
31 -4 35 -9 38 -37 3 -31 27 -48 58 -42 27 5 43 -3 46 -23 3 -20 11 -24 53
-28 48 -5 50 -6 55 -40 4 -31 9 -36 40 -40 30 -4 35 -9 32 -29 -4 -36 15 -51
64 -51 44 0 44 0 44 -35 0 -28 4 -36 24 -41 21 -5 25 -13 28 -52 3 -46 4 -47
40 -50 35 -3 37 -5 40 -40 2 -30 8 -38 26 -40 23 -4 25 -8 22 -60 -1 -29 3
-35 29 -45 29 -11 31 -15 31 -59 l0 -48 60 0 c55 0 61 -2 70 -25 8 -22 16 -25
55 -25 31 0 47 -5 51 -15 4 -11 21 -15 55 -15 45 0 49 -2 49 -24 0 -13 7 -26
15 -30 10 -4 15 -20 15 -50 0 -25 5 -48 10 -51 6 -3 10 -37 10 -76 l0 -69 -29
0 c-44 0 -52 -18 -49 -112 l3 -83 37 -3 c35 -3 37 -5 40 -40 3 -35 5 -37 40
-40 35 -3 37 -5 40 -40 3 -35 5 -37 40 -40 35 -3 37 -5 40 -40 3 -35 5 -37 41
-40 l37 -3 0 -49 c0 -32 5 -50 14 -53 10 -4 16 -24 18 -54 3 -41 6 -48 26 -51
20 -3 22 -9 22 -67 0 -44 4 -64 14 -68 8 -3 14 -21 14 -48 1 -40 16 -64 34
-53 4 3 8 1 8 -5 0 -5 -4 -13 -10 -16 -6 -3 -10 -50 -10 -104 0 -75 4 -101 15
-111 12 -10 15 -45 15 -195 l0 -183 -25 -6 c-24 -6 -25 -9 -26 -99 -1 -50 0
-100 1 -110 1 -11 -9 -21 -29 -28 -29 -10 -31 -14 -31 -60 0 -27 -4 -49 -10
-49 -5 0 -10 -22 -10 -49 0 -34 -4 -51 -15 -55 -11 -4 -15 -20 -15 -55 0 -34
-4 -51 -15 -55 -11 -4 -15 -21 -15 -65 0 -54 -2 -60 -22 -63 -19 -2 -24 -10
-26 -40 -3 -33 -7 -38 -28 -38 -22 0 -24 -4 -24 -50 0 -46 -2 -50 -25 -51 -14
-1 -31 -2 -37 -3 -10 -1 -13 -27 -13 -96 l0 -95 92 -3 c91 -3 93 -2 99 22 3
14 3 29 0 35 -12 19 7 41 40 47 29 5 34 10 34 35 0 21 7 31 28 41 24 12 28 20
32 73 3 38 10 60 18 61 6 1 17 2 22 3 6 0 10 16 10 35 0 18 7 39 15 46 10 8
15 31 15 66 0 49 3 55 25 64 21 8 25 16 25 50 0 22 6 51 14 63 8 12 14 37 12
56 -1 20 3 35 11 38 9 3 13 24 13 63 0 39 5 62 15 70 9 7 15 29 15 54 0 23 4
46 10 52 5 5 10 52 12 104 l3 95 88 3 c55 2 87 -1 87 -8 0 -6 42 -10 115 -10
94 0 117 -3 121 -15 4 -10 21 -15 54 -15 43 0 49 -3 52 -22 3 -20 10 -23 50
-26 25 -2 52 -10 58 -18 8 -8 30 -14 56 -14 37 0 43 -3 46 -22 2 -19 10 -24
41 -26 32 -3 37 -7 37 -28 0 -23 3 -24 64 -24 l65 0 3 -37 c3 -35 6 -38 38
-43 31 -4 36 -9 40 -40 5 -34 7 -35 53 -38 36 -2 47 -7 49 -20 0 -9 2 -21 3
-27 2 -5 3 -15 4 -22 0 -6 11 -13 24 -15 17 -2 23 -11 27 -38 5 -34 7 -35 53
-38 42 -3 47 -6 47 -27 0 -42 10 -55 46 -55 32 0 33 -1 36 -47 3 -46 4 -48 38
-53 26 -4 36 -11 40 -30 5 -21 12 -25 40 -25 34 -1 35 -2 40 -50 4 -42 9 -51
27 -53 17 -3 23 -11 25 -40 3 -35 5 -37 40 -40 l37 -3 3 -62 c3 -55 5 -62 25
-65 17 -3 23 -11 25 -40 l3 -37 52 -3 52 -3 3 -52 c3 -45 6 -52 26 -55 18 -3
22 -10 22 -38 0 -30 4 -35 30 -40 28 -6 30 -9 30 -55 0 -42 3 -48 23 -51 19
-3 22 -10 25 -50 3 -41 7 -49 28 -54 19 -5 24 -12 24 -40 0 -19 5 -35 10 -35
6 -1 16 -2 23 -3 7 -1 13 -21 15 -56 3 -60 14 -80 43 -80 16 0 19 -8 19 -50 0
-27 4 -50 9 -50 6 0 11 -24 13 -52 3 -46 6 -53 26 -56 18 -3 22 -10 22 -40 0
-44 8 -58 35 -63 16 -3 21 -13 23 -49 2 -25 7 -49 13 -54 5 -6 9 -34 9 -62 0
-33 5 -58 15 -68 10 -9 15 -34 15 -69 0 -35 5 -59 14 -67 8 -6 16 -33 18 -58
3 -40 6 -47 26 -50 19 -3 22 -9 22 -52 0 -33 5 -50 15 -54 10 -4 15 -20 15
-50 0 -25 5 -48 10 -51 6 -3 10 -26 10 -49 0 -27 6 -48 15 -56 19 -16 19 -34
0 -50 -12 -10 -15 -31 -13 -99 3 -82 4 -85 28 -91 l25 -6 3 -182 c1 -110 6
-182 12 -182 15 0 13 -277 -2 -282 -8 -3 -12 -51 -13 -166 -1 -111 -5 -166
-13 -174 -7 -7 -12 -35 -12 -64 0 -34 -5 -56 -15 -64 -11 -10 -15 -36 -15
-111 0 -54 -4 -101 -10 -104 -5 -3 -10 -32 -10 -65 0 -42 -4 -59 -15 -64 -11
-4 -15 -20 -15 -55 0 -34 -4 -51 -15 -55 -10 -4 -15 -20 -15 -50 0 -38 -3 -45
-25 -50 -22 -6 -25 -11 -25 -55 0 -36 -4 -51 -16 -55 -13 -5 -16 -17 -12 -61
3 -39 1 -59 -9 -66 -7 -6 -13 -31 -13 -54 0 -26 -6 -48 -15 -55 -10 -8 -15
-31 -15 -67 0 -36 -5 -60 -15 -70 -10 -9 -14 -26 -12 -43 5 -31 1 -40 -28 -56
-15 -8 -21 -23 -23 -58 -2 -25 -7 -46 -13 -46 -5 0 -9 -22 -9 -50 0 -41 -3
-50 -18 -50 -29 0 -42 -21 -42 -66 0 -37 -3 -43 -22 -46 -20 -3 -24 -11 -28
-53 -4 -42 -8 -50 -27 -53 -19 -3 -23 -10 -23 -38 0 -25 -5 -34 -17 -36 -10 0
-22 -2 -28 -3 -5 -2 -16 -3 -22 -4 -9 -1 -13 -18 -13 -50 l0 -50 -37 -3 c-38
-3 -38 -3 -43 -53 -3 -35 -10 -50 -20 -51 -62 -4 -60 -3 -60 -39 0 -32 -3 -35
-28 -35 -36 0 -52 -16 -52 -52 0 -24 -4 -28 -28 -28 -35 0 -52 -16 -52 -51 0
-20 -6 -28 -25 -33 -21 -5 -25 -12 -25 -41 l0 -35 -50 0 c-48 0 -51 -1 -57
-31 -4 -21 -10 -28 -20 -25 -8 4 -28 6 -44 6 -27 0 -29 3 -29 35 0 19 -4 36
-10 36 -5 1 -16 2 -22 3 -7 0 -15 17 -18 36 -4 31 -9 36 -40 40 -34 5 -35 7
-40 55 -4 42 -9 51 -27 53 -17 3 -23 11 -25 40 l-3 37 -52 3 -53 3 0 49 c0 43
-3 49 -22 52 -18 2 -24 11 -28 38 -5 34 -7 35 -55 40 -49 5 -50 5 -53 42 -3
35 -5 37 -40 40 -35 3 -37 5 -40 41 -3 35 -5 37 -38 37 -20 0 -34 5 -35 13 -4
78 -13 97 -49 97 -26 0 -30 3 -30 28 0 35 -16 52 -51 52 -24 0 -28 5 -31 33
-3 31 -5 32 -53 37 -49 5 -50 5 -53 42 -3 35 -5 37 -40 40 -35 3 -37 5 -40 40
-3 35 -5 37 -40 40 -35 3 -37 5 -40 40 -3 35 -5 37 -40 40 -37 3 -37 4 -42 53
-5 48 -6 50 -37 53 -28 3 -33 7 -33 31 0 35 -17 51 -52 51 -24 0 -28 4 -28 29
0 27 -19 53 -36 50 -31 -5 -43 3 -46 34 -3 28 -7 33 -38 37 -34 5 -35 7 -40
55 -5 49 -5 50 -42 53 -35 3 -37 5 -40 40 -3 35 -5 37 -40 40 l-38 3 0 49 0
49 -37 3 c-36 3 -38 5 -41 41 -3 31 -7 37 -27 37 -20 0 -24 6 -27 38 -2 29 -8
38 -25 40 -14 2 -23 11 -25 25 -3 21 -9 22 -100 25 -63 2 -98 -1 -98 -8 0 -6
-57 -10 -164 -10 -133 0 -166 -3 -176 -15 -8 -10 -31 -15 -70 -15 -32 0 -60
-5 -62 -10 -2 -7 -48 -12 -117 -13 -81 -1 -116 -6 -119 -14 -2 -9 -24 -13 -62
-13 -39 0 -62 -5 -70 -15 -8 -9 -30 -15 -56 -15 -24 0 -44 -4 -44 -10 0 -6
-80 -10 -219 -10 -182 0 -221 -3 -231 -15 -9 -11 -32 -15 -81 -15 -63 0 -68 2
-71 22 -2 15 -11 24 -25 26 -22 3 -33 22 -14 22 6 0 11 17 13 38 3 36 4 37 48
40 25 2 49 7 55 13 5 5 21 9 35 9 37 0 50 18 50 67 l0 43 50 0 c47 0 50 2 50
25 0 23 4 25 46 25 27 0 51 6 60 15 9 9 34 15 60 15 40 0 44 2 44 24 0 23 4
25 53 28 45 3 52 6 55 26 3 21 7 22 111 22 84 0 111 3 121 15 8 10 31 15 69
15 31 0 62 5 69 12 6 6 31 13 54 15 24 3 45 8 48 13 3 5 21 10 40 12 27 2 35
8 40 28 5 22 10 24 55 22 56 -3 71 4 76 33 4 17 13 20 64 23 33 2 64 7 70 13
5 5 25 9 45 9 42 0 56 8 61 35 3 16 13 21 52 23 26 2 48 7 48 13 1 5 2 15 3
22 0 6 18 13 38 15 35 3 37 5 40 40 3 37 4 37 53 42 l50 5 3 47 c2 25 10 52
18 58 9 8 14 31 14 66 0 29 5 56 10 59 6 3 10 32 10 64 0 40 5 63 15 71 13 11
15 37 13 154 -3 135 -4 141 -24 144 -18 3 -23 12 -28 53 -4 27 -11 49 -16 49
-6 0 -10 29 -10 65 0 60 -2 65 -24 71 -19 4 -26 14 -28 37 -2 24 -9 33 -28 37
-22 5 -25 12 -28 58 l-3 52 -50 0 -49 0 0 50 c0 46 -2 50 -25 51 -14 1 -30 2
-37 3 -7 0 -15 12 -18 26 -5 22 -13 26 -55 30 -46 5 -50 7 -51 31 -2 40 -12
49 -59 49 -38 0 -44 3 -47 22 -3 22 -7 23 -132 26 -108 2 -131 0 -138 -13 -6
-10 -24 -15 -58 -15 -28 0 -50 -4 -50 -10 0 -5 -20 -10 -44 -10 -26 0 -48 -6
-56 -15 -10 -12 -37 -15 -125 -15 -91 0 -114 -3 -119 -15 -4 -12 -28 -15 -129
-15 -68 0 -127 -4 -133 -9 -5 -6 -29 -11 -54 -13 -37 -2 -46 -7 -48 -24 -4
-27 -36 -34 -152 -33 -52 0 -86 -4 -88 -10 -2 -7 -60 -11 -172 -11 -140 0
-169 -2 -174 -15 -7 -19 -32 -19 -40 0 -4 12 -33 15 -169 15 -105 0 -167 4
-174 11 -7 7 -53 11 -121 10 l-109 -1 -6 30 c-6 29 -8 30 -66 30 -33 0 -63 5
-66 10 -3 6 -28 10 -55 10 -33 0 -50 5 -54 15 -3 9 -18 15 -40 15 -33 0 -35 2
-38 38 l-3 37 -142 3 -143 3 0 24 c0 20 -5 24 -37 27 -30 2 -39 7 -41 25 -3
20 -10 22 -65 25 -56 3 -62 5 -67 28 -5 20 -13 26 -42 28 -35 3 -37 5 -40 40
-3 35 -5 37 -40 40 -29 2 -37 8 -40 25 -3 20 -10 22 -65 25 -55 3 -62 5 -65
25 -2 17 -11 23 -38 27 -34 5 -35 7 -40 55 l-5 50 -47 3 c-46 3 -48 5 -48 32
0 20 -7 33 -22 41 -13 7 -25 11 -28 10 -3 -1 -7 15 -10 36 -5 36 -7 38 -40 38
-33 0 -35 2 -38 37 -3 36 -4 37 -50 40 -45 3 -47 4 -52 38 -5 32 -8 35 -42 38
l-37 3 -3 52 -3 52 -37 3 c-35 3 -37 5 -40 40 -2 30 -8 38 -25 40 -19 3 -23
10 -23 37 0 35 -13 45 -55 45 -21 0 -24 5 -27 48 -3 40 -6 47 -25 50 -20 3
-23 9 -23 46 0 49 -13 66 -52 66 -24 0 -28 4 -28 28 0 34 -10 49 -35 53 -16 3
-20 14 -22 54 -1 28 -7 59 -12 70 -6 11 -12 34 -13 50 -2 22 -9 31 -25 33 -21
3 -23 9 -23 56 0 35 -5 58 -15 66 -9 7 -15 29 -15 55 0 25 -6 48 -14 55 -8 6
-16 33 -18 58 -3 40 -6 47 -25 50 -21 3 -23 9 -23 61 0 40 -5 63 -15 71 -13
11 -15 61 -13 368 l3 356 25 6 c25 6 25 8 28 115 1 60 7 114 12 119 6 6 10 29
10 52 0 25 6 47 15 54 9 7 15 29 15 55 0 26 6 47 15 55 12 10 15 29 14 69 -2
35 2 56 9 59 7 2 12 24 12 53 0 46 2 49 25 49 19 0 25 6 27 23 0 12 1 29 2 37
1 8 12 17 26 20 22 5 25 11 28 60 1 30 7 64 12 75 5 11 11 38 12 60 3 33 7 40
28 45 22 5 25 12 28 52 3 39 7 47 25 50 19 3 22 10 25 55 l3 52 37 3 c36 3 37
4 40 50 3 39 6 47 25 50 18 3 23 11 27 53 5 48 6 50 40 55 32 5 35 8 38 43 3
31 7 37 27 37 20 0 24 6 27 38 3 35 5 37 41 40 l37 3 0 49 0 49 38 3 37 3 3
52 3 52 37 3 c34 3 37 6 42 38 4 31 9 36 40 40 31 4 36 9 40 40 4 31 9 36 40
40 31 4 36 9 40 40 5 32 8 35 40 36 57 2 58 3 62 27 2 18 10 23 41 25 32 3 37
7 37 28 0 22 4 24 49 24 52 0 61 8 61 56 0 22 4 24 50 24 46 0 50 2 50 24 0
21 5 25 38 28 35 3 37 5 40 41 2 22 10 41 18 44 10 4 14 22 14 63 0 33 5 62
10 65 6 3 10 21 10 40 0 20 6 35 15 39 9 3 15 19 15 41 0 33 2 35 34 35 18 0
39 7 46 15 18 22 29 19 40 -11z m2692 -5586 c3 -20 10 -23 51 -26 42 -3 47 -6
47 -27 0 -42 10 -55 45 -55 27 0 34 -4 37 -22 3 -20 11 -24 53 -28 l50 -5 5
-50 c4 -42 8 -50 28 -53 16 -3 22 -10 22 -29 0 -41 -27 -63 -75 -63 -26 0 -48
-6 -55 -15 -8 -10 -31 -15 -71 -15 -32 0 -61 -4 -64 -10 -3 -5 -24 -10 -45
-10 -21 0 -45 -7 -54 -15 -8 -9 -33 -15 -56 -15 -23 0 -48 -6 -56 -15 -9 -9
-34 -15 -60 -15 -24 0 -44 -4 -44 -10 0 -5 -28 -10 -62 -12 -57 -3 -63 -5 -66
-25 -3 -20 -9 -23 -46 -23 -27 0 -48 -6 -56 -15 -10 -12 -37 -15 -120 -15 -83
0 -110 -3 -120 -15 -8 -10 -31 -15 -71 -15 -52 0 -58 -2 -61 -22 -3 -22 -8
-23 -108 -28 -100 -5 -105 -6 -108 -27 -3 -20 -9 -23 -47 -23 -28 0 -47 -5
-52 -15 -7 -11 -35 -15 -123 -17 -111 -3 -115 -4 -118 -25 -3 -20 -9 -23 -46
-23 -27 0 -48 -6 -56 -15 -7 -9 -29 -15 -54 -15 -23 0 -47 -5 -54 -12 -7 -7
-34 -11 -67 -9 -42 2 -56 -1 -61 -13 -5 -13 -26 -16 -120 -16 -95 0 -114 -3
-122 -17 -6 -10 -16 -14 -26 -10 -13 5 -16 17 -14 49 3 42 4 43 40 46 35 3 37
5 40 40 3 31 7 37 28 39 14 0 31 1 38 2 7 1 12 15 12 36 0 36 7 40 60 36 25
-2 38 13 43 44 3 28 7 30 52 35 42 4 50 9 55 30 5 22 13 26 55 30 42 4 50 8
53 28 3 18 10 22 38 22 29 0 34 3 34 25 0 23 4 24 63 27 53 3 63 6 72 26 7 15
18 22 38 22 22 0 30 6 38 29 9 27 16 30 57 33 40 3 47 6 50 26 3 19 9 22 52
22 51 0 60 9 60 56 0 23 3 24 60 24 55 0 60 2 66 25 5 22 12 25 49 25 26 0 47
6 55 15 10 12 45 15 191 15 113 0 179 4 179 10 0 6 20 10 44 10 26 0 48 6 56
15 8 10 31 15 72 15 43 0 60 4 64 15 4 11 21 15 55 15 27 0 49 5 49 10 0 6 22
10 49 10 44 0 50 -3 53 -22z m-1477 -193 c0 -5 -10 -11 -22 -13 -16 -2 -23 2
-23 13 0 11 7 15 23 13 12 -2 22 -7 22 -13z m-865 -289 c6 -8 26 -16 43 -18
28 -3 33 -7 37 -38 5 -34 7 -35 53 -38 46 -3 47 -4 47 -37 0 -21 6 -37 16 -43
28 -16 13 -46 -26 -52 -31 -4 -36 -9 -40 -40 -4 -27 -10 -36 -27 -38 -22 -3
-23 -8 -23 -92 0 -84 1 -89 23 -92 19 -3 23 -11 27 -53 l5 -50 195 -5 c191 -5
195 -5 198 -27 2 -14 11 -23 25 -25 17 -2 23 -11 25 -40 3 -33 7 -38 28 -38
22 0 24 -4 24 -50 l0 -50 39 0 c59 0 71 -8 71 -46 0 -31 3 -34 28 -34 39 0 52
-17 52 -66 0 -37 3 -43 23 -46 17 -2 23 -10 25 -40 3 -35 5 -37 40 -40 34 -3
37 -6 42 -38 5 -34 7 -35 53 -38 49 -3 64 -18 25 -24 -18 -2 -24 -10 -26 -40
-3 -35 -5 -37 -40 -40 l-37 -3 -3 -55 c-1 -30 -9 -69 -17 -87 -16 -32 -20
-139 -7 -159 4 -7 16 -13 27 -15 14 -3 21 -14 25 -39 5 -34 7 -35 52 -38 39
-3 47 -6 50 -25 3 -21 7 -22 152 -25 124 -2 152 0 166 13 14 12 37 15 111 13
l94 -3 3 -77 3 -77 37 -3 c35 -3 37 -5 40 -40 3 -35 5 -37 40 -40 37 -3 37 -4
42 -53 5 -50 5 -50 43 -53 45 -4 50 -27 12 -62 -19 -18 -32 -22 -59 -17 -24 4
-39 1 -47 -9 -9 -11 -39 -14 -124 -14 -91 0 -114 -3 -119 -15 -4 -11 -21 -15
-65 -15 -33 0 -63 -4 -66 -10 -3 -5 -26 -10 -51 -10 -30 0 -46 -5 -50 -15 -4
-8 -16 -15 -29 -15 -13 0 -25 7 -29 15 -8 22 -268 22 -286 0 -16 -19 -44 -19
-60 0 -8 9 -30 15 -56 15 -24 0 -44 5 -44 10 0 6 -22 10 -50 10 -45 0 -50 3
-56 25 -6 25 -10 26 -74 29 -21 1 -25 6 -28 38 -2 29 -8 37 -25 40 -17 2 -23
12 -27 38 -5 34 -7 35 -55 40 -49 5 -50 5 -53 42 -3 35 -5 37 -40 40 -35 3
-37 5 -40 41 l-3 37 -49 0 -49 0 -3 38 c-3 35 -5 37 -40 40 -35 3 -37 5 -40
40 -2 30 -8 38 -25 40 -17 2 -23 10 -23 27 0 47 -9 55 -61 55 l-49 0 0 49 c0
44 -3 50 -22 53 -18 2 -24 11 -28 38 -5 34 -7 35 -55 40 l-50 5 -5 50 c-5 48
-6 50 -40 55 -26 4 -36 10 -38 27 -3 17 -11 23 -40 25 -37 3 -37 4 -42 53 -5
48 -6 50 -37 53 -32 3 -35 6 -37 47 -1 15 -10 21 -36 25 -31 4 -36 9 -40 40
-4 31 -9 36 -40 40 -34 5 -35 7 -40 55 -4 42 -8 50 -30 55 -22 5 -25 12 -28
53 -3 44 -5 47 -32 47 -32 0 -44 13 -44 50 -1 21 -7 26 -36 30 -34 5 -35 7
-40 55 -4 42 -8 50 -30 55 -22 5 -25 12 -28 52 -3 39 -7 47 -28 52 -22 6 -24
11 -24 66 0 32 -4 62 -10 65 -17 11 -11 23 13 27 14 2 23 11 25 26 3 18 10 22
41 22 20 0 46 7 57 15 11 8 42 14 75 15 41 0 58 4 63 15 4 11 20 15 56 15 47
0 50 2 50 25 0 22 4 25 34 25 18 0 39 7 46 15 8 10 31 15 71 15 l58 0 3 38 c3
36 4 37 48 40 25 2 49 7 55 13 5 5 28 9 51 9 25 0 47 6 54 15 17 21 143 21
160 1z m2763 -64 c-1 -5 4 -16 12 -22 9 -8 15 -30 15 -60 0 -33 5 -50 15 -54
8 -3 15 -14 15 -25 0 -10 -7 -21 -15 -25 -10 -4 -15 -20 -15 -51 0 -28 -6 -52
-15 -61 -8 -9 -15 -33 -15 -54 0 -21 -4 -42 -10 -45 -5 -3 -10 -28 -10 -55 l0
-49 -52 -3 c-46 -3 -53 -6 -56 -25 -3 -18 -11 -22 -50 -25 -40 -3 -47 -6 -52
-28 -5 -21 -12 -25 -45 -28 -22 -1 -49 -7 -61 -13 -11 -6 -34 -9 -50 -7 -27 3
-29 6 -32 50 -3 46 -4 47 -40 50 -35 3 -37 5 -40 41 -3 35 -5 37 -37 37 l-34
0 -3 62 c-3 57 -5 63 -28 68 -15 4 -26 15 -30 30 -4 16 -14 26 -28 28 -21 3
-23 8 -20 65 l3 62 38 3 c20 2 37 7 37 13 0 5 24 9 53 9 31 0 61 6 73 15 10 8
38 15 60 15 24 0 47 6 54 15 8 9 30 15 56 15 24 0 44 5 44 10 0 6 23 10 50 10
36 0 52 4 56 15 5 11 22 15 64 15 33 0 62 5 65 11 8 12 31 6 28 -9z m-895
-279 l3 -62 37 -3 37 -3 3 -52 c3 -48 5 -53 27 -53 20 0 24 -6 27 -37 3 -36 5
-38 41 -41 l37 -3 0 -49 0 -49 38 -3 c35 -3 37 -5 40 -40 3 -36 2 -37 -35 -40
-30 -2 -38 -8 -43 -28 -5 -20 -11 -24 -32 -22 -14 2 -32 -4 -41 -12 -10 -11
-34 -16 -70 -16 -36 0 -59 -5 -67 -15 -10 -12 -37 -15 -126 -15 l-114 0 0 -25
c0 -23 -3 -25 -49 -25 -44 0 -50 -3 -53 -22 -3 -21 -9 -23 -63 -26 -39 -2 -63
-8 -68 -18 -4 -8 -23 -14 -42 -14 -27 0 -34 -4 -37 -22 -2 -19 -10 -24 -48
-26 -25 -2 -53 -10 -62 -19 -28 -25 -47 -9 -50 44 -3 48 -3 48 -40 51 l-38 3
0 49 0 49 -37 3 c-36 3 -38 5 -41 40 -3 35 -5 37 -40 40 -35 3 -37 5 -40 41
l-3 37 -50 0 c-44 0 -49 2 -50 23 -1 12 -2 29 -3 37 0 8 -12 17 -26 20 -21 5
-25 13 -28 46 -4 61 21 84 90 84 37 0 60 5 68 15 8 9 29 15 56 15 23 0 46 5
49 10 3 6 26 10 49 10 27 0 48 6 56 15 8 10 31 15 70 15 42 0 59 4 64 15 4 11
20 15 56 15 47 0 50 2 50 25 l0 25 105 0 105 0 0 25 c0 23 4 25 45 25 27 0 49
6 57 15 10 11 33 14 98 12 l85 -2 3 -62z"/>
<path d="M3043 8436 c-5 -9 -28 -16 -58 -18 -50 -3 -50 -3 -53 -40 l-3 -38
-50 0 -49 0 0 -95 0 -95 94 0 95 0 3 38 c3 36 4 37 48 40 25 2 49 7 55 13 17
17 44 10 47 -13 3 -20 11 -24 53 -28 42 -4 51 -9 53 -27 2 -14 11 -23 25 -25
18 -2 23 -11 25 -41 l3 -38 107 3 107 3 3 92 c2 83 1 92 -17 98 -10 3 -23 5
-27 4 -26 -4 -34 4 -34 35 l0 35 -52 3 c-40 2 -52 7 -50 17 2 8 1 25 -3 38 -5
21 -11 23 -64 23 -40 0 -63 5 -71 15 -17 21 -175 22 -187 1z"/>
<path d="M2677 7994 c-4 -4 -7 -15 -7 -25 0 -13 -9 -19 -37 -21 -30 -2 -39 -8
-41 -25 -2 -12 -10 -27 -18 -33 -20 -18 -20 -163 1 -184 9 -8 15 -33 15 -60 0
-28 5 -48 14 -53 8 -4 16 -24 18 -43 3 -32 6 -35 37 -36 19 0 36 -5 39 -12 6
-18 172 -15 196 3 11 8 28 13 37 10 9 -3 23 1 31 9 8 7 23 16 34 18 18 3 19
15 22 190 l2 187 -22 3 c-18 2 -24 11 -28 38 l-5 35 -141 3 c-77 1 -143 -1
-147 -4z"/>
<path d="M5299 7694 c-7 -8 -26 -15 -43 -14 -53 3 -56 1 -56 -35 0 -26 -4 -35
-17 -37 -10 0 -22 -2 -28 -3 -5 -2 -16 -3 -22 -4 -10 -1 -13 -27 -13 -96 l0
-95 95 0 c69 0 95 3 97 13 0 6 2 17 3 22 2 6 3 18 4 28 1 13 10 17 35 17 19 0
38 5 41 10 3 6 37 10 75 10 64 0 69 -2 72 -22 2 -19 10 -24 41 -26 35 -3 37
-5 37 -38 0 -22 6 -37 15 -40 11 -4 15 -21 15 -55 l0 -50 108 3 107 3 3 93 3
92 -26 0 c-22 0 -25 4 -25 39 0 59 -8 71 -45 71 -32 0 -34 2 -37 38 l-3 37
-52 3 c-49 3 -53 5 -53 28 l0 24 -159 0 c-131 0 -161 -3 -172 -16z"/>
<path d="M5525 7093 c-7 -7 -41 -13 -76 -15 l-64 -3 -3 -52 -3 -52 -37 -3 -37
-3 -3 -125 c-4 -161 -1 -170 43 -170 33 0 34 -1 37 -47 l3 -48 63 -3 c44 -2
65 -7 69 -17 8 -21 175 -21 193 -1 6 8 33 16 58 18 l47 3 3 70 c2 39 7 74 13
80 12 12 12 178 0 191 -6 5 -11 36 -13 69 l-3 60 -50 5 c-42 4 -50 8 -53 27
-2 16 -12 24 -35 28 -50 8 -139 1 -152 -12z"/>
<path d="M3815 6313 c-38 -2 -79 -8 -90 -13 -11 -5 -45 -11 -75 -12 l-55 -3
-3 -52 -3 -52 -37 -3 -37 -3 -3 -125 c-3 -147 0 -168 31 -172 19 -3 22 -10 25
-50 2 -28 8 -48 15 -49 7 -1 23 -2 36 -2 21 -2 25 -7 25 -37 l1 -35 60 -3 c35
-2 67 -9 76 -18 12 -11 37 -14 100 -12 78 3 84 4 87 26 3 18 10 22 42 22 54 0
70 8 70 36 0 19 5 24 25 24 l25 0 0 159 c0 129 -3 160 -14 164 -10 4 -16 24
-18 54 -3 41 -6 48 -25 51 -17 3 -23 11 -25 40 l-3 37 -59 3 c-34 2 -65 9 -73
18 -8 7 -17 13 -21 12 -4 -1 -38 -3 -77 -5z m20 -203 c3 -5 22 -10 41 -10 32
0 34 -2 34 -34 0 -18 7 -39 15 -46 11 -9 15 -27 13 -59 -3 -39 -6 -46 -25 -49
-15 -2 -23 -10 -23 -22 0 -26 -15 -33 -30 -15 -7 8 -21 15 -31 15 -16 0 -19 8
-19 49 0 34 -4 51 -15 55 -11 4 -15 21 -15 66 0 57 1 60 24 60 14 0 28 -4 31
-10z"/>
<path d="M3280 5426 c0 -26 -6 -48 -15 -56 -11 -10 -15 -36 -15 -111 0 -84 3
-102 19 -118 11 -11 27 -21 38 -23 15 -3 19 -14 21 -65 l3 -62 37 -3 c35 -3
37 -5 40 -40 l3 -38 49 0 49 0 3 -37 c3 -38 3 -38 53 -43 42 -4 50 -8 53 -27
3 -24 10 -25 97 -25 19 0 103 0 185 1 l150 1 0 28 c1 25 2 26 14 9 12 -15 27
-17 102 -15 l89 3 3 85 c2 46 -2 94 -7 105 -6 11 -12 45 -13 75 l-3 55 -95 0
-95 0 -5 -50 c-4 -43 -8 -50 -27 -51 -36 -2 -53 -12 -53 -34 0 -19 -6 -20
-124 -20 -122 0 -125 1 -128 23 -3 19 -11 23 -53 27 -49 5 -50 5 -53 42 -3 35
-5 37 -40 40 -35 3 -37 5 -40 41 -3 32 -7 37 -28 37 l-24 0 0 145 0 145 -95 0
-95 0 0 -44z"/>
<path d="M3760 2765 c0 -94 0 -95 24 -95 21 0 25 -5 28 -37 3 -36 5 -38 41
-41 l37 -3 0 -49 0 -49 38 -3 c35 -3 37 -5 40 -40 3 -35 5 -37 40 -40 35 -3
37 -5 40 -41 l3 -38 87 3 87 3 3 84 c3 91 -1 101 -50 101 -25 0 -28 4 -28 34
0 33 -2 35 -37 38 -36 3 -38 5 -41 40 -3 35 -5 37 -40 40 l-37 3 -3 53 c-3 47
-5 52 -27 52 -20 0 -24 6 -27 38 l-3 37 -87 3 -88 3 0 -96z"/>
<path d="M4452 2511 c-9 -5 -12 -31 -10 -92 3 -78 5 -84 25 -87 19 -3 22 -11
25 -50 l3 -47 90 0 90 0 0 85 c0 81 -1 84 -25 90 -21 5 -25 12 -26 46 0 22 -4
46 -8 52 -8 14 -144 16 -164 3z"/>
</g>
</svg>
